<svg width="36" height="36" viewBox="0 0 36 36" fill="none" xmlns="http://www.w3.org/2000/svg">
<path d="M2.2642 10.4545H6.05682L10.0625 20.2273H10.233L14.2386 10.4545H18.0312V25H15.0483V15.5327H14.9276L11.1634 24.929H9.1321L5.3679 15.4972H5.24716V25H2.2642V10.4545ZM25.7212 25H20.565V10.4545H25.7638C27.2269 10.4545 28.4864 10.7457 29.5423 11.3281C30.5981 11.9058 31.4102 12.7367 31.9783 13.821C32.5513 14.9053 32.8377 16.2027 32.8377 17.7131C32.8377 19.2282 32.5513 20.5303 31.9783 21.6193C31.4102 22.7083 30.5934 23.544 29.5281 24.1264C28.4674 24.7088 27.1985 25 25.7212 25ZM23.6403 22.3651H25.5934C26.5025 22.3651 27.2672 22.2041 27.8874 21.8821C28.5124 21.5554 28.9812 21.0511 29.2937 20.3693C29.6109 19.6828 29.7695 18.7973 29.7695 17.7131C29.7695 16.6383 29.6109 15.7599 29.2937 15.0781C28.9812 14.3963 28.5148 13.8944 27.8945 13.5724C27.2743 13.2505 26.5096 13.0895 25.6005 13.0895H23.6403V22.3651Z" fill="#2A1C42"/>
</svg>
